<?xml version="1.0" encoding="UTF-8"?>
<svg id="Layer_2" xmlns="http://www.w3.org/2000/svg" version="1.1" viewBox="0 0 2000 2000">
  <!-- Generator: Adobe Illustrator 29.1.0, SVG Export Plug-In . SVG Version: 2.1.0 Build 142)  -->
  <defs>
    <style>
      .st0 {
        fill: none;
      }

      .st1 {
        fill: #001e36;
      }

      .st2 {
        fill: #31a8ff;
      }
    </style>
  </defs>
  <rect class="st0" x="-.5" width="2000" height="2000"/>
  <g id="Layer_21" data-name="Layer_2">
    <g id="Surfaces">
      <g id="Photo_Surface">
        <g id="Outline_no_shadow">
          <path class="st1" d="M522.3,278.8h955.4c144.9,0,262,117.1,262,262v918.4c0,144.9-117.1,262-262,262h-955.4c-144.9,0-262-117.1-262-262v-918.4c0-144.9,117.1-262,262-262Z"/>
        </g>
      </g>
    </g>
    <g id="Outlined_Mnemonics_Logos">
      <g id="Ps">
        <path class="st2" d="M593.2,1290.3v-634.3c0-4.3,1.8-6.8,6.2-6.8,10.5,0,20.3,0,34.5-.6,14.8-.6,30.2-.6,46.8-1.2,16.6-.6,34.5-.6,53.6-1.2,19.1-.6,37.6-.6,56.1-.6,50.5,0,92.5,6.2,127,19.1,30.8,10.5,59.2,27.7,82.6,50.5,19.7,19.7,35.1,43.8,45,70.3,9.2,25.9,14.2,52.4,14.2,80.1,0,53-12.3,96.8-37,131.3-24.7,34.5-59.2,60.4-99.2,75.2-41.9,15.4-88.1,21-138.7,21s-24.7,0-30.8-.6c-6.2-.6-14.8-.6-26.5-.6v197.9c.6,4.3-2.5,8-6.8,8.6h-119.6c-4.9,0-7.4-2.5-7.4-8ZM727.6,768.2v207.1c8.6.6,16.6,1.2,24,1.2h32.7c24,0,48.1-3.7,70.9-11.1,19.7-5.5,37-17.3,50.5-32.7,12.9-15.4,19.1-36.4,19.1-63.5.6-19.1-4.3-38.2-14.2-54.9-10.5-16-25.3-28.4-43.1-35.1-22.8-9.2-47.5-12.9-72.7-12.3-16,0-30.2,0-41.9.6-12.3-.6-21,0-25.3.6h0Z"/>
        <path class="st2" d="M1443.8,937.7c-18.5-9.9-38.2-16.6-59.2-21-22.8-4.9-45.6-8-69-8-12.3-.6-25.3,1.2-37,4.3-8,1.8-14.8,6.2-19.1,12.3-3.1,4.9-4.9,11.1-4.9,16.6s2.5,11.1,6.2,16c5.5,6.8,12.9,12.3,21,16.6,14.2,7.4,29,14.2,43.8,20.3,33.3,11.1,65.3,26.5,94.9,45,20.3,12.9,37,30.2,48.7,51.2,9.9,19.7,14.8,41.3,14.2,63.5.6,29-8,57.9-24,82-17.3,24.7-41.3,43.8-69,54.9-30.2,12.9-67.2,19.7-111.6,19.7s-56.1-2.5-83.8-8c-21.6-3.7-43.1-10.5-62.9-19.7-4.3-2.5-7.4-6.8-6.8-11.7v-107.3c0-1.8.6-4.3,2.5-5.5,1.8-1.2,3.7-.6,5.5.6,24,14.2,49.3,24,76.4,30.2,23.4,6.2,48.1,9.2,72.7,9.2s40.1-3.1,51.2-8.6c9.9-4.3,16.6-14.8,16.6-25.9s-4.9-16.6-14.8-24.7c-9.9-8-30.2-17.3-60.4-29-31.4-11.1-60.4-25.9-87.5-44.4-19.1-13.6-35.1-31.4-46.8-52.4-9.9-19.7-14.8-41.3-14.2-62.9,0-26.5,7.4-51.8,21-74.6,15.4-24.7,38.2-44.4,64.7-56.7,29-14.8,65.3-21.6,109.1-21.6s51.2,1.8,76.4,5.5c18.5,2.5,36.4,7.4,53,14.2,2.5.6,4.9,3.1,6.2,5.5.6,2.5,1.2,4.9,1.2,7.4v100.5c0,2.5-1.2,4.9-3.1,6.2-5.5,1.2-8.6,1.2-11.1,0Z"/>
      </g>
    </g>
  </g>
</svg>